<svg width="512" height="512" viewBox="0 0 512 512" fill="none" xmlns="http://www.w3.org/2000/svg">
  <rect width="512" height="512" rx="100" fill="#4dabf7"/>
  <path d="M256 120C180 120 120 180 120 256C120 332 180 392 256 392C332 392 392 332 392 256" stroke="white" stroke-width="32" stroke-linecap="round"/>
  <path d="M256 392V440" stroke="white" stroke-width="32" stroke-linecap="round"/>
  <circle cx="256" cy="256" r="60" fill="white"/>
  <g transform="translate(214, 214) scale(3.5)">
    <path d="M19 14c1.49-1.46 3-3.21 3-5.5A5.5 5.5 0 0 0 16.5 3c-1.76 0-3 .5-4.5 2-1.5-1.5-2.74-2-4.5-2A5.5 5.5 0 0 0 2 8.5c0 2.3 1.5 4.05 3 5.5l7 7Z" fill="#4dabf7"/>
  </g>
  <path d="M392 256C392 200 348 156 292 156" stroke="white" stroke-width="32" stroke-linecap="round"/>
</svg>
